<?xml version="1.0" encoding="UTF-8"?>
<svg id="Layer_2" data-name="Layer 2" xmlns="http://www.w3.org/2000/svg" viewBox="0 0 782.9 545">
  <defs>
    <style>
      .cls-1, .cls-2 {
        fill: currentColor;
      }

      .cls-2 {
        fill-rule: evenodd;
      }
    </style>
  </defs>
  <g id="Layer_1-2" data-name="Layer 1">
    <g>
      <path class="cls-2" d="M108.64,347.45l.7,117.14c.1,3.65.46,3.56,1.44,6.32.8,2.24.76,3.8,1.63,6.42.43,1.3,1.46,3.95,2.19,5.83,3.77,9.68,9.05,18.11,15.12,26.1,6.52,8.57,9.26,9.83,16.16,16.14l10.16,6.81c8.14,4.37,26.45,12.68,35.3,12.78l393.43-.03c10.55.02,17.81-2.13,26.75-5.92,2.53-1.07,3.48-1.38,5.64-2.51,15.88-8.31,20.99-11.25,32.7-24.61,3.01-3.44,4.03-5.88,6.81-9.36,18.24-22.81,17.22-53.4,17.22-82.43,0-21.48,2.34-83.49-4.48-101.63-3.12-8.31-8.37-20.59-13.85-27.29-8.87-10.84-10.68-14.77-24.69-24.63-6.17-4.35-26.92-13.69-34.77-14.81l-395.03-1.51c-.9,0-8.41.72-10.38.94-5.91.65-12.99,2.51-18.73,4.92-21.81,9.15-29.72,15.05-43.9,32.91-1.33,1.67-.4.53-1.46,1.74-4.8,5.5-12.62,21.72-14.61,28.91-2.54,9.18-3.35,17.66-3.35,27.76M479.53,293.08c1.87-6.46,2.16-9.05,10.59-6.92,4.52,1.14,11.13,5.29,15.48,5.07,5.77-.3,5.06-6.31,15.54.35,4.18,2.66,9.68,4.66,14.76,6.02l8.65,2.18c4.33.32,4.08-1.89,4.28-9.67.31-12.03,7.61-23.58,14.07-16.96,1.87,1.91,2.81,5.23,3.32,7.36,1.37,5.76,5.47,19.56,8.42,25.4,4.49,8.9,15.15,12.12,20.23,24.2,4.22,10.04,2.85,17.57,11.6,33.62,7.34,13.47,15.53,21.58,7.52,29.16-2.67,2.53-7.74,9.75-10.69,11.05-4.02,1.78-14.12-2.44-16.22-4.68-7.11-7.58,1.37-20.06-28.34-27.41-3.97-.98-5.43-.95-8.05-3.2-10.4-8.92-4.13-18.17-21.91-8.45-4.53,2.47-6.89,4.11-11.37,6.33-2.2,1.08-3.49,2.31-4.98,3.11-1.87,1.01-4.04,1.77-5.99,2.85-13.27,7.33-19.16,9.56-27.23,25.36-1.18,2.31-1.97,3.28-2.32,6.58-.64,6.05,3.24,6.2,4.99,20.98,2.37,20.02,12.08,33.45,5.51,41.15-1.88,2.21-6.7,7.5-9.29,8.66-6.25,2.81-36.35-8.51-45.32-4.24-1.91.91-8.84,6.9-8.98,8.95-.37,5.55,19.35,13.97,23.08,18.32,3.5,4.09,2.51,4.99,2.51,11.26,9.2,6.49,16.64,14.23,2.31,19.78-2.79,1.08-4.4,1.1-7.5,1.12-6.16.06-8.7-1.63-11.94-4.59-3.02-2.76-3.91-6.38-6.95-8.39-6.64-4.4-16.03-4-21.3-10.24-13.13-15.56-7.13-1.52-26.41,2.31-5.08,1.01-5.1,2.54-8.8,4.95-2.13,1.39-7.11,4.05-10.21,4.2-9.6-1.96-1.61-17.12.14-22.44,4.93-15,17.36-2.85,19.39-13.18-7.65-3.8-16.72,1.72-29.24-3.1-4.11-1.58-4.41-1.55-6.29-5.78-10.38-23.35-13.72-25.44-31.93-36.77-13.63-8.48-26.05-21.82-33.14-36.42-1.25-2.58-5.35-13.18-8.21-14.28-6.63-2.55-20.73,3.32-36.78-9.24-3.64-2.85-4.6-2.17-9.63-2.13-11.51.08-22.04,3.77-33.6,1-5.45-1.31-11.87-4.43-16.14-7.36-4.51-3.09-9.07-6.79-12.01-11.43-2.91-4.59-6.14-10.39-5.57-18.17.28-3.77,1.68-5.99,4.79-6.8,3.72-.97,5.23,1.25,7.44,2.97,7.35,5.73,27.12,9.55,36.58,7.83,3.15-.57,5.93-1.09,9.35-1.86,8.93-2.01,15.52-6.98,28.04-2.36,13.33,4.93,5.53,27.02,27.27,18.86,4.6-1.73,9.28-4.66,13.43-7.49,2.45-1.67,4.53-2.49,7.27-3.97l14.25-8.36c3.22-1.57,5.21-2.3,8.34-3.87,30.01-15.08,50.39-4.33,80.81-8.11,2.78-.35,7.43-.57,9.98-1.23,6.69-1.71,22.84-4.43,26.54-8.83l-3.13-3.43c-4.89-3.65-8.58-6.61-7.62-13.98,4.88-3.54,8.27-1.49,13.63.72,4.04,1.66,10.95,3.36,14.58,1.69-1.97-2.63-7.49-8.31-8.14-10.8-1.86-7.14,4.39-9,10.94-6.67,7.83,2.79,22.34,10.64,29.62,9.43Z"/>
      <path class="cls-2" d="M367.49,420.15c0,5.82,3.74,11.24,7.66,19.79,3.39,7.4,3.09,14.49,11.69,13.31.29-4.52-4.96-6.47-3.83-11.87.96-4.6,6.44-4.04,11.65-4.79,3.44-.5,10.61-2.15,14.51-.88,6.03,1.96,2.4,7.92,8.28,8.35,2.11-2.34,5-13.56,1.55-17.2-1.55-1.63-.69-1-3.78-1.16-1.68-.09-4.01.12-5.79.1l-18.8-2.08c-3.44-1-5.84-.59-8.84-1.66-2.81-1-14.3-7.77-14.3-1.91"/>
      <path class="cls-2" d="M447.93,450.84v1.98c3.25.92,8.06,1.16,11.31.14.39-2.75-2.19-8.29-6.14-9.63-2.49,1.44-5.16,6.21-5.16,7.51"/>
      <path class="cls-1" d="M782.9,169.3c-8.46-3.35-16.91-6.7-25.29-9.99-.23,4.34-.5,7.09-.7,8.22-.81,4.54-2.98,7.58-6.42,9.21-3.44,1.63-7.36,1.69-11.9.07-3.44-1.23-6.41-2.88-9-5.05-2.58-2.16-4.53-4.62-5.95-7.28-1.48-2.76-2.63-5.75-3.6-9-.98-3.27-1.56-6.47-1.8-9.76-.23-3.21-.47-6.47-.63-9.76-.16-3.26-.09-6.22,0-8.91.06-1.84,0-3.15,0-4.04,0-2.87,0-5.3.08-7.28.08-1.97.27-4.45.55-7.35.27-2.89.67-5.29,1.17-7.21.51-1.96,1.22-3.92,2.19-5.88.98-1.97,2.28-3.39,3.6-4.39,1.34-1,3.13-1.59,5.17-1.79,2.11-.21,4.46.18,7.12,1.22,3.52,1.37,6.59,3.38,9.32,6.11,2.68,2.67,4.78,5.72,6.18,8.95,1.41,3.24,2.54,6.54,3.21,9.85.66,3.28.94,6.52.86,9.67,8.3,3.35,16.68,6.8,25.05,10.26-.08-9.44-.08-18.83-.08-28.24v-28.19c-8.77-3.81-17.46-7.62-26.15-11.3-.94,1.75-1.88,3.51-2.82,5.28-2.51-3.58-5.63-6.85-9.39-9.8-3.83-3.01-7.19-5.28-10.1-6.7-2.96-1.45-6.57-2.91-10.65-4.41-7.9-2.89-15.11-3.95-21.61-3.08-6.5.87-11.93,3.13-16.21,6.77-4.42,3.77-8.1,8.68-11.12,14.65-3.02,5.97-5.13,12.53-6.5,19.49-1.38,7.02-1.96,14.51-1.96,22.38s.55,15.29,1.72,22.38c1.18,7.12,2.99,13.86,5.4,20.25,4.79,12.71,12.05,23.59,21.84,32.83,9.78,9.24,21.61,15.94,35.39,20.25,5.88,1.84,11.67,3.11,17.46,3.65,5.8.54,10.72.51,14.8,0,4.07-.5,7.75-1.12,10.96-1.93,3.29-.82,5.71-1.59,7.28-2.43.78-.42,1.64-.78,2.51-1.17v-36.57M413.84.09c-.08,11.32-.08,22.64-.08,33.93,3.99.07,8.06.18,12.13.32,4.85,20.5,9.72,41.05,14.56,61.55,4.86,20.59,9.79,41.21,14.72,61.78,14.95.76,29.99,1.7,45.02,2.87,2.82-11.04,5.64-22.09,8.46-33.11,2.82-11.02,5.64-22.06,8.46-33.02,2.66,11.57,5.4,23.14,8.06,34.67,2.66,11.55,5.4,23.1,8.14,34.6,15.11,1.84,30.3,3.79,45.49,6.06,4.46-17.47,8.92-34.92,13.39-52.23,4.46-17.27,9.02-34.5,13.54-51.73,1.11-4.24,2.88-7,5.25-8.08,2.41-1.1,5.95-1.08,10.65-.02V24.54c-18.24-4.04-36.48-7.69-54.65-10.88v33.52c4.15.69,6.87,1.59,8.22,2.59,1.39,1.04,1.69,2.84,1.02,5.51-1.91,7.57-3.76,15.17-5.64,22.73-1.88,7.6-3.76,15.18-5.64,22.78-3.6-15.15-7.12-30.21-10.65-45.32-3.52-15.11-7.05-30.24-10.57-45.39-11.43-1.54-22.86-2.94-34.29-4.22-3.68,14.81-7.36,29.66-10.96,44.52-3.6,14.88-7.28,29.73-10.88,44.66-2.27-9.71-4.54-19.45-6.73-29.18-2.19-9.71-4.38-19.47-6.58-29.2,3.91.28,7.83.55,11.82.83V3.63c-24.11-1.7-48.23-2.87-72.26-3.54ZM296.41,37.49c3.21-.23,6.42-.46,9.71-.69V2.94c-24.19,2.04-48.38,4.71-72.5,7.92v33.61c4.62-.64,9.24-1.33,13.94-1.93,5.01,19.68,10.02,39.37,15.03,59.05,5.01,19.7,10.1,39.54,15.19,59.37,16.28-1.33,32.65-2.36,49.01-3.21,4.93-16.78,9.86-33.57,14.8-50.35,4.92-16.72,9.88-33.42,14.88-50.14.33-1.1.82-2.68,1.41-4.75.58-2.06.98-3.52,1.25-4.36.28-.86.65-2.06,1.17-3.63.5-1.51.93-2.62,1.33-3.26.38-.6.97-1.43,1.64-2.5.65-1.04,1.33-1.75,2.04-2.18.7-.42,1.57-.84,2.58-1.35.94-.48,2.11-.83,3.29-1.01,1.25-.19,2.66-.25,4.15-.25V0c-19.42.41-38.83,1.12-58.25,2.14v33.89c4.15-.23,7.28.38,9.32,1.79,2.03,1.41,3.05,3.47,3.13,6.15.08,2.69-.38,5.9-1.41,9.69-2.49,9.16-5.01,18.37-7.44,27.5-2.43,9.14-4.85,18.37-7.28,27.53-2.9-11.85-5.71-23.72-8.53-35.59-2.82-11.87-5.64-23.74-8.46-35.61ZM41.34,118.31c5.79,12.97,11.59,26.15,17.38,39.44,5.8,13.31,11.59,26.75,17.46,40.27,7.83-2.2,15.66-4.43,23.57-6.59,4.78-16.3,9.56-32.67,14.33-49.06,4.78-16.46,9.55-32.9,14.41-49.32v57.76c-3.44.8-6.89,1.65-10.33,2.55v33.41c22.39-5.17,44.86-9.83,67.33-13.94v-33.96c-4.31.78-8.61,1.56-12.92,2.34V55.17c4.07-.83,8.14-1.63,12.29-2.43V19.38c-21.92,4.73-43.84,10.03-65.69,15.91-3.91,13.09-7.82,26.15-11.67,39.15-3.83,12.95-7.67,25.87-11.51,38.85-4.38-10.47-8.76-20.92-13.07-31.34-4.3-10.4-8.61-20.78-12.92-30.99C46.66,59.53,23.33,68.88,0,79.12c0,10.49,0,20.96.08,31.41,4.62-1.95,9.24-3.93,13.94-5.9v64.01c0,.99,0,2.3-.08,3.99-.08,1.68-.23,2.99-.39,3.81-.15.8-.39,1.91-.7,3.24-.31,1.31-.72,2.31-1.17,3.1-.41.72-.97,1.56-1.72,2.59-.66.92-1.49,1.79-2.35,2.43-.86.64-1.95,1.34-3.13,2.02-1.25.72-2.66,1.38-4.15,1.97v31.98c18.16-6.77,36.33-13.16,54.57-19.22v-32.74c-1.49.48-2.82.83-4.07,1.01s-2.27.26-3.21.32c-.86.05-1.64-.09-2.35-.46-.7-.37-1.23-.69-1.64-.96-.45-.3-.86-.81-1.17-1.63-.31-.81-.51-1.5-.63-1.95-.12-.47-.31-1.24-.39-2.39-.08-1.15-.08-2.02-.08-2.57v-44.88Z"/>
    </g>
  </g>
</svg>